# xmcd
#
# Track frame offsets: 
#        150
#        12765
#        25552
#        38370
#        51910
#        65505
#        80197
#        91927
#        105402
#        122942
#        136659
#        150274
#        163704
#        177008
#
# Disc length: 2540 seconds
#
# Revision: 1
# Processed by: cddbd v1.5.2PL0 Copyright (c) Steve Scherf et al.
# Submitted via: ExactAudioCopy v1.0b1
#
DISCID=9c09ea0e
DTITLE=Anita Perras - The Greatest Hits Collection (One Smokey Rose)
DYEAR=1900
DGENRE=Country
TTITLE0=One Smokey Rose
TTITLE1=The Tip Of My Fingers
TTITLE2=Touch My Heart
TTITLE3=Hello Again
TTITLE4=Isn't That The Strangest Thing (With Tim Taylor)
TTITLE5=If I Were You
TTITLE6=Mutual Acquaintance
TTITLE7=Heads You Win (Tails I Lose)
TTITLE8=I've Found Someone Too
TTITLE9=When Love Comes Around The Bend
TTITLE10=Here Comes My Baby
TTITLE11=This Country's Rockin'
TTITLE12=Way Beyond The Blue (Acoustic)
TTITLE13=The Tennessee Waltz (Acapella)
EXTD=
EXTT0=
EXTT1=
EXTT2=
EXTT3=
EXTT4=
EXTT5=
EXTT6=
EXTT7=
EXTT8=
EXTT9=
EXTT10=
EXTT11=
EXTT12=
EXTT13=
PLAYORDER=
